<svg viewBox="0 0 21 20" fill="none" xmlns="http://www.w3.org/2000/svg">
<path d="M6.553 14.6536V19.9718H3.62V14.6536H6.553ZM9.48271 4.16555e-05C11.9959 0.00280975 13.0852 0.145395 14.633 0.981473C16.3335 1.89447 17.3834 3.70905 17.3834 5.96872C17.3834 8.06862 16.5275 9.8832 14.8841 10.9674C13.3777 11.9717 11.6658 12.1086 9.38329 12.1086H3.62V0L9.48271 4.16555e-05ZM9.95255 2.56744L9.86262 2.56781L6.553 2.59063V9.57506H10.0566C12.5103 9.57506 14.382 8.59359 14.382 6.00296C14.382 3.59493 12.8755 2.54498 9.86262 2.56781L9.95255 2.56744Z" fill="#06AC38"/>
</svg>
