<svg width="956" height="247" viewBox="0 0 956 247" fill="none" xmlns="http://www.w3.org/2000/svg">
<path d="M824.912 137.932V3.78861H858.448V21.3679H863.316C865.48 16.6801 869.537 12.2627 875.487 8.11583C881.436 3.78861 890.451 1.625 902.532 1.625C912.989 1.625 922.094 4.05906 929.847 8.92718C937.78 13.615 943.911 20.196 948.238 28.6701C952.565 36.964 954.729 46.7002 954.729 57.8789V137.932H920.652V60.5834C920.652 50.4865 918.128 42.9139 913.079 37.8655C908.211 32.817 901.179 30.2928 891.984 30.2928C881.527 30.2928 873.413 33.8087 867.643 40.8404C861.874 47.6918 858.989 57.3379 858.989 69.7787V137.932H824.912Z" fill="black"/>
<path d="M723.729 141.716C714.173 141.716 705.609 140.094 698.036 136.848C690.463 133.423 684.423 128.554 679.916 122.244C675.588 115.753 673.425 107.91 673.425 98.7147C673.425 89.5193 675.588 81.8566 679.916 75.7263C684.423 69.4158 690.553 64.728 698.306 61.6629C706.24 58.4175 715.255 56.7948 725.351 56.7948H762.133V49.2221C762.133 42.9116 760.15 37.773 756.183 33.8064C752.216 29.6595 745.906 27.586 737.251 27.586C728.777 27.586 722.467 29.5693 718.32 33.536C714.173 37.3223 711.468 42.2805 710.206 48.4108L678.834 37.8632C680.997 31.0117 684.423 24.7914 689.111 19.202C693.979 13.4324 700.38 8.83475 708.313 5.40903C716.427 1.80301 726.253 0 737.792 0C755.462 0 769.435 4.41738 779.712 13.2521C789.989 22.0869 795.128 34.8882 795.128 51.6562V101.69C795.128 107.099 797.652 109.803 802.7 109.803H813.519V137.93H790.801C784.13 137.93 778.63 136.307 774.303 133.062C769.976 129.817 767.812 125.489 767.812 120.08V119.81H762.674C761.953 121.974 760.33 124.858 757.806 128.464C755.281 131.89 751.315 134.955 745.906 137.66C740.497 140.364 733.104 141.716 723.729 141.716ZM729.679 114.13C739.235 114.13 746.988 111.516 752.937 106.287C759.068 100.878 762.133 93.7564 762.133 84.9217V82.2172H727.785C721.475 82.2172 716.517 83.5694 712.911 86.2739C709.305 88.9785 707.502 92.7648 707.502 97.6329C707.502 102.501 709.395 106.468 713.181 109.533C716.967 112.598 722.467 114.13 729.679 114.13Z" fill="black"/>
<path d="M600.633 141.716C587.291 141.716 575.481 138.922 565.204 133.332C555.107 127.563 547.174 119.539 541.404 109.262C535.815 98.8048 533.021 86.5444 533.021 72.4809V69.2355C533.021 55.1721 535.815 43.0017 541.404 32.7246C546.994 22.2671 554.837 14.2438 564.934 8.65445C575.031 2.88482 586.75 0 600.092 0C613.254 0 624.703 2.97497 634.44 8.9249C644.176 14.6945 651.749 22.8081 657.158 33.2655C662.567 43.5426 665.271 55.5327 665.271 69.2355V80.8649H567.638C567.999 90.0603 571.425 97.5427 577.915 103.312C584.406 109.082 592.339 111.967 601.715 111.967C611.271 111.967 618.303 109.893 622.81 105.746C627.318 101.6 630.744 97.0018 633.087 91.9534L660.944 106.558C658.42 111.246 654.724 116.384 649.855 121.973C645.168 127.383 638.857 132.07 630.924 136.037C622.991 139.823 612.894 141.716 600.633 141.716ZM567.909 55.4425H630.653C629.932 47.6896 626.777 41.4692 621.188 36.7814C615.779 32.0936 608.657 29.7496 599.822 29.7496C590.627 29.7496 583.324 32.0936 577.915 36.7814C572.506 41.4692 569.171 47.6896 567.909 55.4425Z" fill="black"/>
<path d="M457.582 141.716C444.6 141.716 432.791 139.012 422.153 133.603C411.696 128.194 403.402 120.351 397.272 110.074C391.141 99.7965 388.076 87.3557 388.076 72.7514V68.9651C388.076 54.3607 391.141 41.9199 397.272 31.6428C403.402 21.3657 411.696 13.5226 422.153 8.11355C432.791 2.70452 444.6 0 457.582 0C470.383 0 481.382 2.25377 490.577 6.76129C499.773 11.2688 507.165 17.4892 512.754 25.4224C518.524 33.1754 522.31 42.0101 524.113 51.9266L491.118 58.9584C490.397 53.5493 488.774 48.6812 486.25 44.354C483.726 40.0268 480.12 36.6011 475.432 34.0769C470.924 31.5526 465.245 30.2905 458.393 30.2905C451.542 30.2905 445.322 31.8231 439.732 34.8882C434.323 37.773 429.996 42.1904 426.751 48.1403C423.686 53.9099 422.153 61.0318 422.153 69.506V72.2105C422.153 80.6846 423.686 87.8966 426.751 93.8466C429.996 99.6162 434.323 104.034 439.732 107.099C445.322 109.983 451.542 111.426 458.393 111.426C468.671 111.426 476.424 108.812 481.652 103.583C487.061 98.1738 490.487 91.1421 491.929 82.4876L524.924 90.3307C522.581 99.8867 518.524 108.631 512.754 116.564C507.165 124.317 499.773 130.448 490.577 134.955C481.382 139.463 470.383 141.716 457.582 141.716Z" fill="black"/>
<path d="M306.317 141.716C292.975 141.716 280.985 139.012 270.347 133.603C259.71 128.194 251.326 120.351 245.195 110.074C239.065 99.7965 236 87.4459 236 73.0218V68.6946C236 54.2705 239.065 41.9199 245.195 31.6428C251.326 21.3657 259.71 13.5226 270.347 8.11355C280.985 2.70452 292.975 0 306.317 0C319.66 0 331.65 2.70452 342.287 8.11355C352.925 13.5226 361.309 21.3657 367.439 31.6428C373.57 41.9199 376.635 54.2705 376.635 68.6946V73.0218C376.635 87.4459 373.57 99.7965 367.439 110.074C361.309 120.351 352.925 128.194 342.287 133.603C331.65 139.012 319.66 141.716 306.317 141.716ZM306.317 111.426C316.775 111.426 325.429 108.09 332.281 101.419C339.132 94.5678 342.558 84.8315 342.558 72.2105V69.506C342.558 56.8849 339.132 47.2388 332.281 40.5677C325.609 33.7163 316.955 30.2905 306.317 30.2905C295.86 30.2905 287.205 33.7163 280.354 40.5677C273.503 47.2388 270.077 56.8849 270.077 69.506V72.2105C270.077 84.8315 273.503 94.5678 280.354 101.419C287.205 108.09 295.86 111.426 306.317 111.426Z" fill="black"/>
<path fill-rule="evenodd" clip-rule="evenodd" d="M160.937 70.4299L23.0646 70.4294C24.635 33.7136 54.8982 4.42949 92.0005 4.4297C129.103 4.42991 159.366 33.7141 160.937 70.4299Z" fill="#FF6F55"/>
<rect y="102.43" width="184" height="37" fill="#447CEA"/>
<path d="M942.139 229.423C939.329 229.423 937.036 228.563 935.259 226.843C933.539 225.066 932.679 222.715 932.679 219.791V195.711H922.015V186.767H932.679V173.523H943.515V186.767H955.211V195.711H943.515V217.899C943.515 219.619 944.317 220.479 945.923 220.479H954.179V229.423H942.139Z" fill="black"/>
<path d="M891.701 229.43V186.774H902.365V191.59H903.913C904.544 189.87 905.576 188.608 907.009 187.806C908.5 187.003 910.22 186.602 912.169 186.602H917.329V196.234H911.997C909.245 196.234 906.981 196.979 905.203 198.47C903.426 199.903 902.537 202.139 902.537 205.178V229.43H891.701Z" fill="black"/>
<path d="M863.639 230.634C859.397 230.634 855.584 229.774 852.201 228.054C848.819 226.334 846.153 223.84 844.203 220.572C842.254 217.304 841.279 213.377 841.279 208.79V207.414C841.279 202.828 842.254 198.9 844.203 195.632C846.153 192.364 848.819 189.87 852.201 188.15C855.584 186.43 859.397 185.57 863.639 185.57C867.882 185.57 871.695 186.43 875.077 188.15C878.46 189.87 881.126 192.364 883.075 195.632C885.025 198.9 885.999 202.828 885.999 207.414V208.79C885.999 213.377 885.025 217.304 883.075 220.572C881.126 223.84 878.46 226.334 875.077 228.054C871.695 229.774 867.882 230.634 863.639 230.634ZM863.639 221.002C866.965 221.002 869.717 219.942 871.895 217.82C874.074 215.642 875.163 212.546 875.163 208.532V207.672C875.163 203.659 874.074 200.592 871.895 198.47C869.774 196.292 867.022 195.202 863.639 195.202C860.314 195.202 857.562 196.292 855.383 198.47C853.205 200.592 852.115 203.659 852.115 207.672V208.532C852.115 212.546 853.205 215.642 855.383 217.82C857.562 219.942 860.314 221.002 863.639 221.002Z" fill="black"/>
<path d="M792.801 246.63V186.774H803.465V191.934H805.013C805.987 190.272 807.507 188.81 809.571 187.548C811.635 186.23 814.587 185.57 818.429 185.57C821.869 185.57 825.051 186.43 827.975 188.15C830.899 189.813 833.249 192.278 835.027 195.546C836.804 198.814 837.693 202.77 837.693 207.414V208.79C837.693 213.434 836.804 217.39 835.027 220.658C833.249 223.926 830.899 226.42 827.975 228.14C825.051 229.803 821.869 230.634 818.429 230.634C815.849 230.634 813.67 230.319 811.893 229.688C810.173 229.115 808.768 228.37 807.679 227.452C806.647 226.478 805.815 225.503 805.185 224.528H803.637V246.63H792.801ZM815.161 221.174C818.543 221.174 821.324 220.114 823.503 217.992C825.739 215.814 826.857 212.66 826.857 208.532V207.672C826.857 203.544 825.739 200.42 823.503 198.298C821.267 196.12 818.486 195.03 815.161 195.03C811.835 195.03 809.055 196.12 806.819 198.298C804.583 200.42 803.465 203.544 803.465 207.672V208.532C803.465 212.66 804.583 215.814 806.819 217.992C809.055 220.114 811.835 221.174 815.161 221.174Z" fill="black"/>
<path d="M731.215 246.629V237.169H754.435C756.04 237.169 756.843 236.309 756.843 234.589V223.839H755.295C754.836 224.814 754.119 225.789 753.145 226.763C752.17 227.738 750.851 228.541 749.189 229.171C747.526 229.802 745.405 230.117 742.825 230.117C739.499 230.117 736.575 229.372 734.053 227.881C731.587 226.333 729.667 224.212 728.291 221.517C726.915 218.823 726.227 215.727 726.227 212.229V186.773H737.063V211.369C737.063 214.58 737.837 216.988 739.385 218.593C740.99 220.199 743.255 221.001 746.179 221.001C749.504 221.001 752.084 219.912 753.919 217.733C755.753 215.497 756.671 212.401 756.671 208.445V186.773H767.507V236.997C767.507 239.921 766.647 242.243 764.927 243.963C763.207 245.741 760.913 246.629 758.047 246.629H731.215Z" fill="black"/>
<path d="M701.657 230.631C697.816 230.631 694.863 229.971 692.799 228.653C690.735 227.334 689.216 225.872 688.241 224.267H686.693V229.427H676.029V169.227H686.865V191.673H688.413C689.044 190.641 689.875 189.666 690.907 188.749C691.997 187.831 693.401 187.086 695.121 186.513C696.899 185.882 699.077 185.567 701.657 185.567C705.097 185.567 708.279 186.427 711.203 188.147C714.127 189.809 716.478 192.275 718.255 195.543C720.033 198.811 720.921 202.767 720.921 207.411V208.787C720.921 213.431 720.033 217.387 718.255 220.655C716.478 223.923 714.127 226.417 711.203 228.137C708.279 229.799 705.097 230.631 701.657 230.631ZM698.389 221.171C701.715 221.171 704.495 220.11 706.731 217.989C708.967 215.81 710.085 212.657 710.085 208.529V207.669C710.085 203.541 708.967 200.416 706.731 198.295C704.553 196.116 701.772 195.027 698.389 195.027C695.064 195.027 692.283 196.116 690.047 198.295C687.811 200.416 686.693 203.541 686.693 207.669V208.529C686.693 212.657 687.811 215.81 690.047 217.989C692.283 220.11 695.064 221.171 698.389 221.171Z" fill="black"/>
</svg>
