<svg width="822" height="237" viewBox="0 0 822 237" fill="none" xmlns="http://www.w3.org/2000/svg">
<path d="M304.978 164.1C293.918 164.1 284.048 161.65 275.368 156.75C266.688 151.71 259.828 144.85 254.788 136.17C249.748 127.49 247.228 117.62 247.228 106.56C247.228 95.4996 249.748 85.6296 254.788 76.9496C259.828 68.2696 266.688 61.4796 275.368 56.5796C284.048 51.5396 293.918 49.0196 304.978 49.0196C315.898 49.0196 325.698 51.5396 334.378 56.5796C343.058 61.4796 349.848 68.2696 354.748 76.9496C359.788 85.6296 362.308 95.4996 362.308 106.56C362.308 117.62 359.788 127.49 354.748 136.17C349.848 144.85 343.058 151.71 334.378 156.75C325.698 161.65 315.898 164.1 304.978 164.1ZM304.978 141.21C310.998 141.21 316.318 139.67 320.938 136.59C325.698 133.51 329.408 129.38 332.068 124.2C334.868 119.02 336.198 113.14 336.058 106.56C336.198 99.8396 334.868 93.8896 332.068 88.7096C329.408 83.5296 325.698 79.4696 320.938 76.5296C316.318 73.4496 310.998 71.9096 304.978 71.9096C298.958 71.9096 293.498 73.4496 288.598 76.5296C283.838 79.4696 280.128 83.5996 277.468 88.9196C274.808 94.0996 273.478 99.9796 273.478 106.56C273.478 113.14 274.808 119.02 277.468 124.2C280.128 129.38 283.838 133.51 288.598 136.59C293.498 139.67 298.958 141.21 304.978 141.21Z" fill="black"/>
<path d="M424.472 164.1C414.112 164.1 404.802 161.58 396.542 156.54C388.282 151.5 381.772 144.64 377.012 135.96C372.252 127.28 369.872 117.48 369.872 106.56C369.872 95.6396 372.252 85.8396 377.012 77.1596C381.772 68.4796 388.282 61.6196 396.542 56.5796C404.802 51.5396 414.112 49.0196 424.472 49.0196C434.412 49.0196 443.442 50.9096 451.562 54.6896C459.682 58.4696 465.982 63.7196 470.462 70.4396L456.182 87.6596C454.082 84.7196 451.422 82.0596 448.202 79.6796C444.982 77.2996 441.552 75.4096 437.912 74.0096C434.272 72.6096 430.632 71.9096 426.992 71.9096C420.832 71.9096 415.302 73.4496 410.402 76.5296C405.642 79.4696 401.862 83.5996 399.062 88.9196C396.262 94.0996 394.862 99.9796 394.862 106.56C394.862 113.14 396.262 119.02 399.062 124.2C402.002 129.38 405.922 133.51 410.822 136.59C415.722 139.67 421.182 141.21 427.202 141.21C430.842 141.21 434.342 140.65 437.702 139.53C441.202 138.27 444.492 136.52 447.572 134.28C450.652 132.04 453.522 129.24 456.182 125.88L470.462 143.31C465.702 149.47 459.122 154.51 450.722 158.43C442.462 162.21 433.712 164.1 424.472 164.1Z" fill="black"/>
<path d="M533.686 164.1C522.066 164.1 511.776 161.65 502.816 156.75C493.996 151.85 487.066 145.2 482.026 136.8C477.126 128.26 474.676 118.53 474.676 107.61C474.676 98.9296 476.076 91.0196 478.876 83.8796C481.676 76.7396 485.526 70.5796 490.426 65.3996C495.466 60.0796 501.416 56.0196 508.276 53.2196C515.276 50.2796 522.906 48.8096 531.166 48.8096C538.446 48.8096 545.236 50.2096 551.536 53.0096C557.836 55.8096 563.296 59.6596 567.916 64.5596C572.536 69.3196 576.036 75.0596 578.416 81.7796C580.936 88.3596 582.126 95.5696 581.986 103.41L581.776 112.44H492.106L487.276 94.7996H560.146L556.786 98.3696V93.7496C556.366 89.4096 554.966 85.6296 552.586 82.4096C550.206 79.0496 547.126 76.4596 543.346 74.6396C539.706 72.6796 535.646 71.6996 531.166 71.6996C524.306 71.6996 518.496 73.0296 513.736 75.6896C509.116 78.3496 505.616 82.1996 503.236 87.2396C500.856 92.1396 499.666 98.2996 499.666 105.72C499.666 112.86 501.136 119.09 504.076 124.41C507.156 129.73 511.426 133.86 516.886 136.8C522.486 139.6 528.996 141 536.416 141C541.596 141 546.356 140.16 550.696 138.48C555.036 136.8 559.726 133.79 564.766 129.45L577.576 147.3C573.796 150.8 569.456 153.81 564.556 156.33C559.796 158.71 554.756 160.6 549.436 162C544.116 163.4 538.866 164.1 533.686 164.1Z" fill="black"/>
<path d="M638.252 164.1C629.152 164.1 620.892 161.58 613.472 156.54C606.052 151.5 600.102 144.64 595.622 135.96C591.142 127.28 588.902 117.41 588.902 106.35C588.902 95.2896 591.142 85.4196 595.622 76.7396C600.102 68.0596 606.192 61.2696 613.892 56.3696C621.592 51.4696 630.272 49.0196 639.932 49.0196C645.532 49.0196 650.642 49.8596 655.262 51.5396C659.882 53.0796 663.942 55.3196 667.442 58.2596C670.942 61.1996 673.812 64.5596 676.052 68.3396C678.432 72.1196 680.042 76.1796 680.882 80.5196L675.212 79.0496V51.3296H701.252V162H675.002V135.54L681.092 134.49C680.112 138.27 678.292 141.98 675.632 145.62C673.112 149.12 669.892 152.27 665.972 155.07C662.192 157.73 657.922 159.9 653.162 161.58C648.542 163.26 643.572 164.1 638.252 164.1ZM645.392 141.21C651.412 141.21 656.732 139.74 661.352 136.8C665.972 133.86 669.542 129.8 672.062 124.62C674.722 119.3 676.052 113.21 676.052 106.35C676.052 99.6296 674.722 93.6796 672.062 88.4996C669.542 83.3196 665.972 79.2596 661.352 76.3196C656.732 73.3796 651.412 71.9096 645.392 71.9096C639.372 71.9096 634.052 73.3796 629.432 76.3196C624.952 79.2596 621.452 83.3196 618.932 88.4996C616.412 93.6796 615.152 99.6296 615.152 106.35C615.152 113.21 616.412 119.3 618.932 124.62C621.452 129.8 624.952 133.86 629.432 136.8C634.052 139.74 639.372 141.21 645.392 141.21Z" fill="black"/>
<path d="M722.799 162V51.3296H747.999L748.419 74.0096L743.589 76.5296C744.989 71.4896 747.719 66.9396 751.779 62.8796C755.839 58.6796 760.669 55.3196 766.269 52.7996C771.869 50.2796 777.609 49.0196 783.489 49.0196C791.889 49.0196 798.889 50.6996 804.489 54.0596C810.229 57.4196 814.499 62.4596 817.299 69.1796C820.239 75.8996 821.709 84.2996 821.709 94.3796V162H795.879V96.2696C795.879 90.6696 795.109 86.0496 793.569 82.4096C792.029 78.6296 789.649 75.8996 786.429 74.2196C783.209 72.3996 779.289 71.5596 774.669 71.6996C770.889 71.6996 767.389 72.3296 764.169 73.5896C761.089 74.7096 758.359 76.3896 755.979 78.6296C753.739 80.7296 751.919 83.1796 750.519 85.9796C749.259 88.7796 748.629 91.8596 748.629 95.2196V162H735.819C733.299 162 730.919 162 728.679 162C726.579 162 724.619 162 722.799 162Z" fill="black"/>
<path d="M671.235 225.5C670.069 225.5 668.919 225.333 667.785 225C666.685 224.633 665.685 224.15 664.785 223.55C663.885 222.95 663.135 222.283 662.535 221.55C661.935 220.783 661.535 220.017 661.335 219.25L662.785 218.6L662.635 224.9H656.685V188H662.835V204.75L661.735 204.25C661.902 203.45 662.269 202.7 662.835 202C663.435 201.267 664.169 200.617 665.035 200.05C665.902 199.45 666.852 198.983 667.885 198.65C668.919 198.283 669.969 198.1 671.035 198.1C673.402 198.1 675.485 198.683 677.285 199.85C679.119 201.017 680.552 202.633 681.585 204.7C682.652 206.767 683.185 209.117 683.185 211.75C683.185 214.417 682.669 216.783 681.635 218.85C680.602 220.917 679.169 222.55 677.335 223.75C675.535 224.917 673.502 225.5 671.235 225.5ZM669.935 220.1C671.335 220.1 672.585 219.75 673.685 219.05C674.785 218.317 675.652 217.333 676.285 216.1C676.919 214.833 677.235 213.383 677.235 211.75C677.235 210.15 676.919 208.733 676.285 207.5C675.685 206.267 674.835 205.3 673.735 204.6C672.635 203.9 671.369 203.55 669.935 203.55C668.502 203.55 667.235 203.9 666.135 204.6C665.035 205.3 664.169 206.267 663.535 207.5C662.902 208.733 662.585 210.15 662.585 211.75C662.585 213.383 662.902 214.833 663.535 216.1C664.169 217.333 665.035 218.317 666.135 219.05C667.235 219.75 668.502 220.1 669.935 220.1Z" fill="black"/>
<path d="M689.691 236.5L695.291 223.55L695.341 227.65L682.341 198.65H689.441L696.691 215.85C696.924 216.283 697.158 216.867 697.391 217.6C697.624 218.3 697.824 219 697.991 219.7L696.741 220.1C696.974 219.467 697.224 218.8 697.491 218.1C697.758 217.367 698.008 216.617 698.241 215.85L704.441 198.65H711.591L700.591 225L696.091 236.5H689.691Z" fill="black"/>
<path d="M726.125 236V198.65H732.175L732.275 204.65L731.225 204.2C731.425 203.167 731.991 202.2 732.925 201.3C733.858 200.367 734.991 199.617 736.325 199.05C737.691 198.483 739.108 198.2 740.575 198.2C742.908 198.2 744.975 198.783 746.775 199.95C748.608 201.117 750.041 202.717 751.075 204.75C752.141 206.783 752.675 209.133 752.675 211.8C752.675 214.433 752.141 216.783 751.075 218.85C750.041 220.883 748.608 222.5 746.775 223.7C744.975 224.867 742.941 225.45 740.675 225.45C739.141 225.45 737.658 225.15 736.225 224.55C734.825 223.95 733.625 223.167 732.625 222.2C731.658 221.233 731.058 220.217 730.825 219.15L732.325 218.45V236H726.125ZM739.425 220C740.825 220 742.075 219.65 743.175 218.95C744.275 218.25 745.125 217.283 745.725 216.05C746.358 214.817 746.675 213.4 746.675 211.8C746.675 210.2 746.375 208.8 745.775 207.6C745.175 206.367 744.325 205.4 743.225 204.7C742.125 204 740.858 203.65 739.425 203.65C737.958 203.65 736.675 204 735.575 204.7C734.508 205.367 733.658 206.317 733.025 207.55C732.391 208.783 732.075 210.2 732.075 211.8C732.075 213.4 732.391 214.817 733.025 216.05C733.658 217.283 734.508 218.25 735.575 218.95C736.675 219.65 737.958 220 739.425 220Z" fill="black"/>
<path d="M768.206 225.5C765.573 225.5 763.223 224.917 761.156 223.75C759.089 222.55 757.456 220.917 756.256 218.85C755.056 216.783 754.456 214.433 754.456 211.8C754.456 209.167 755.056 206.817 756.256 204.75C757.456 202.683 759.089 201.067 761.156 199.9C763.223 198.7 765.573 198.1 768.206 198.1C770.806 198.1 773.139 198.7 775.206 199.9C777.273 201.067 778.889 202.683 780.056 204.75C781.256 206.817 781.856 209.167 781.856 211.8C781.856 214.433 781.256 216.783 780.056 218.85C778.889 220.917 777.273 222.55 775.206 223.75C773.139 224.917 770.806 225.5 768.206 225.5ZM768.206 220.05C769.639 220.05 770.906 219.683 772.006 218.95C773.139 218.217 774.023 217.233 774.656 216C775.323 214.767 775.639 213.367 775.606 211.8C775.639 210.2 775.323 208.783 774.656 207.55C774.023 206.317 773.139 205.35 772.006 204.65C770.906 203.917 769.639 203.55 768.206 203.55C766.773 203.55 765.473 203.917 764.306 204.65C763.173 205.35 762.289 206.333 761.656 207.6C761.023 208.833 760.706 210.233 760.706 211.8C760.706 213.367 761.023 214.767 761.656 216C762.289 217.233 763.173 218.217 764.306 218.95C765.473 219.683 766.773 220.05 768.206 220.05Z" fill="black"/>
<path d="M785.357 225V198.65H791.407L791.507 207.05L790.657 205.15C791.024 203.817 791.657 202.617 792.557 201.55C793.457 200.483 794.49 199.65 795.657 199.05C796.857 198.417 798.107 198.1 799.407 198.1C799.974 198.1 800.507 198.15 801.007 198.25C801.54 198.35 801.974 198.467 802.307 198.6L800.657 205.35C800.29 205.15 799.84 204.983 799.307 204.85C798.774 204.717 798.24 204.65 797.707 204.65C796.874 204.65 796.074 204.817 795.307 205.15C794.574 205.45 793.924 205.883 793.357 206.45C792.79 207.017 792.34 207.683 792.007 208.45C791.707 209.183 791.557 210.017 791.557 210.95V225H785.357Z" fill="black"/>
<path d="M808.229 225V191.95H814.379V225H808.229ZM803.029 204.35V198.65H820.129V204.35H803.029Z" fill="black"/>
<path d="M0.515013 96.2467L197.485 96.2467C197.485 43.0911 153.392 2.77259e-06 99 6.19275e-06C44.6082 9.61291e-06 0.515011 43.0911 0.515013 96.2467Z" fill="url(#paint0_linear_1804_3868)" fill-opacity="0.2"/>
<path d="M23.0001 96.2456L175.204 96.2456C175.204 55.0397 141.132 21.6357 99.1021 21.6357C57.0721 21.6357 23.0001 55.0397 23.0001 96.2456Z" fill="url(#paint1_linear_1804_3868)" fill-opacity="0.2"/>
<path d="M52.3704 96.2435L145.633 96.2435C145.633 70.6958 124.755 49.9854 99.0016 49.9854C73.2479 49.9854 52.3704 70.6958 52.3704 96.2435Z" fill="url(#paint2_linear_1804_3868)"/>
<path d="M0.515205 106.249L197.485 106.249C197.485 161.059 153.392 205.491 99.0001 205.491C44.6084 205.491 0.515209 161.059 0.515205 106.249Z" fill="url(#paint3_linear_1804_3868)"/>
<defs>
<linearGradient id="paint0_linear_1804_3868" x1="162.917" y1="61.491" x2="9.64608" y2="61.491" gradientUnits="userSpaceOnUse">
<stop offset="0.112043" stop-color="#FF7826"/>
<stop offset="1" stop-color="#FF6489"/>
</linearGradient>
<linearGradient id="paint1_linear_1804_3868" x1="148.493" y1="69.3032" x2="30.0559" y2="69.3032" gradientUnits="userSpaceOnUse">
<stop offset="0.112043" stop-color="#FF7826"/>
<stop offset="1" stop-color="#FF6489"/>
</linearGradient>
<linearGradient id="paint2_linear_1804_3868" x1="129.265" y1="79.5391" x2="56.6938" y2="79.5392" gradientUnits="userSpaceOnUse">
<stop offset="0.112043" stop-color="#FF7826"/>
<stop offset="1" stop-color="#FF6489"/>
</linearGradient>
<linearGradient id="paint3_linear_1804_3868" x1="165.97" y1="106.249" x2="93.8806" y2="233.241" gradientUnits="userSpaceOnUse">
<stop offset="0.0001" stop-color="#4243F6"/>
<stop offset="1" stop-color="#2991F3"/>
</linearGradient>
</defs>
</svg>
